<?xml version="1.0" standalone="no"?>
<!DOCTYPE svg PUBLIC "-//W3C//DTD SVG 20010904//EN"
 "http://www.w3.org/TR/2001/REC-SVG-20010904/DTD/svg10.dtd">
<svg version="1.0" xmlns="http://www.w3.org/2000/svg"
 width="300.000000pt" height="157.000000pt" viewBox="0 0 300.000000 157.000000"
 preserveAspectRatio="xMidYMid meet">
<metadata>
Created by potrace 1.10, written by Peter Selinger 2001-2011
</metadata>
<g transform="translate(0.000000,157.000000) scale(0.100000,-0.100000)"
fill="#ffffff" stroke="none">
<path d="M1270 920 c0 -17 -5 -19 -25 -14 l-25 6 0 -141 c0 -171 -7 -164 155
-159 94 2 116 6 134 22 12 11 21 26 21 34 0 10 -8 6 -25 -12 -23 -25 -29 -26
-120 -26 l-95 0 0 150 0 150 93 0 c81 0 96 -3 112 -20 21 -23 24 -75 6 -93 -7
-7 -53 -15 -104 -18 l-92 -5 92 -2 c83 -2 93 -4 107 -24 9 -12 16 -30 16 -40
0 -10 5 -18 10 -18 14 0 13 15 -5 57 -11 25 -12 40 -5 47 15 15 12 79 -6 104
-14 21 -23 22 -130 22 -108 0 -114 -1 -114 -20z m-2 -157 c-4 -168 -22 -166
-26 2 -2 108 0 125 13 125 13 0 15 -17 13 -127z"/>
<path d="M1550 824 c0 -68 4 -113 9 -109 5 3 12 1 16 -4 3 -6 -13 -12 -37 -14
l-43 -4 43 -1 c26 -1 41 -6 37 -12 -4 -6 -11 -8 -16 -5 -5 4 -9 -10 -9 -31 l0
-36 76 4 c69 3 79 6 100 31 37 44 26 129 -18 143 -17 5 -17 7 -4 17 21 16 37
63 29 84 -15 44 -34 53 -110 53 l-73 0 0 -116z m136 95 c29 -10 39 -55 20 -84
-13 -19 -26 -24 -76 -27 l-60 -3 0 62 0 61 48 0 c26 -1 57 -4 68 -9z m29 -162
c22 -32 19 -83 -7 -107 -30 -28 -138 -30 -138 -2 0 9 10 23 22 31 l22 14 -22
17 c-13 11 -22 29 -22 47 l0 28 65 -3 c53 -3 68 -8 80 -25z"/>
<path d="M1620 695 c0 -35 0 -35 45 -35 45 0 45 0 45 35 0 35 0 35 -45 35 -45
0 -45 0 -45 -35z m75 0 c0 -13 -8 -21 -24 -23 -28 -4 -46 11 -37 33 9 25 61
16 61 -10z"/>
<path d="M1643 695 c0 -6 10 -11 22 -11 12 0 22 5 22 11 0 5 -10 10 -22 10
-12 0 -22 -5 -22 -10z"/>
<path d="M1310 860 c0 -40 0 -40 40 -40 40 0 40 0 40 40 0 40 0 40 -40 40 -40
0 -40 0 -40 -40z m62 24 c14 -13 -6 -44 -28 -44 -19 0 -24 5 -24 25 0 20 5 25
23 25 13 0 26 -3 29 -6z"/>
<path d="M1423 893 c15 -2 37 -2 50 0 12 2 0 4 -28 4 -27 0 -38 -2 -22 -4z"/>
<path d="M1423 863 c15 -2 37 -2 50 0 12 2 0 4 -28 4 -27 0 -38 -2 -22 -4z"/>
<path d="M1410 830 c0 -5 18 -10 40 -10 22 0 40 5 40 10 0 6 -18 10 -40 10
-22 0 -40 -4 -40 -10z"/>
<path d="M1328 763 c12 -2 32 -2 45 0 12 2 2 4 -23 4 -25 0 -35 -2 -22 -4z"/>
<path d="M1410 715 l0 -55 40 0 40 0 0 55 0 55 -40 0 -40 0 0 -55z m60 6 c0
-33 -3 -39 -25 -43 -24 -5 -25 -3 -25 38 0 40 2 44 25 44 22 0 25 -4 25 -39z"/>
<path d="M1310 732 c0 -4 18 -8 40 -8 22 -1 40 2 40 7 0 5 -18 9 -40 9 -22 0
-40 -3 -40 -8z"/>
<path d="M1310 700 c0 -5 18 -10 40 -10 22 0 40 5 40 10 0 6 -18 10 -40 10
-22 0 -40 -4 -40 -10z"/>
<path d="M1310 669 c0 -5 18 -9 40 -9 22 0 40 3 40 8 0 4 -18 8 -40 8 -22 1
-40 -2 -40 -7z"/>
</g>
</svg>
